<svg width="58" height="58" viewBox="0 0 58 58" fill="none" xmlns="http://www.w3.org/2000/svg">
<g id="icon" clip-path="url(#clip0_213_5153)">
<g id="Vector">
<path d="M38.0449 0H19.9551C12.9701 0 9.47767 0 6.80978 1.35936C4.46304 2.55508 2.55508 4.46304 1.35936 6.80978C0 9.47767 0 12.9701 0 19.9551V38.0449C0 45.0299 0 48.5223 1.35936 51.1902C2.55508 53.537 4.46304 55.4449 6.80978 56.6406C9.47767 58 12.9701 58 19.9551 58H38.0449C45.0299 58 48.5223 58 51.1902 56.6406C53.537 55.4449 55.4449 53.537 56.6406 51.1902C58 48.5223 58 45.0299 58 38.0449V19.9551C58 12.9701 58 9.47767 56.6406 6.80978C55.4449 4.46304 53.537 2.55508 51.1902 1.35936C48.5223 0 45.0299 0 38.0449 0Z" fill="#D9E4F2"/>
<path d="M38.0449 0H19.9551C12.9701 0 9.47767 0 6.80978 1.35936C4.46304 2.55508 2.55508 4.46304 1.35936 6.80978C0 9.47767 0 12.9701 0 19.9551V38.0449C0 45.0299 0 48.5223 1.35936 51.1902C2.55508 53.537 4.46304 55.4449 6.80978 56.6406C9.47767 58 12.9701 58 19.9551 58H38.0449C45.0299 58 48.5223 58 51.1902 56.6406C53.537 55.4449 55.4449 53.537 56.6406 51.1902C58 48.5223 58 45.0299 58 38.0449V19.9551C58 12.9701 58 9.47767 56.6406 6.80978C55.4449 4.46304 53.537 2.55508 51.1902 1.35936C48.5223 0 45.0299 0 38.0449 0Z" fill="url(#paint0_linear_213_5153)"/>
</g>
<g id="Group" filter="url(#filter0_ddi_213_5153)">
<path id="Vector_2" d="M39.318 26.46H25.0033C15.6233 26.46 12.3607 28.7419 12.3607 34.6914V43.7377H18.682V31.7981H32.9967C42.3767 31.7981 45.6393 29.7199 45.6393 23.7705V15.2131H39.318V26.46Z" fill="#F1F1F1"/>
<path id="Vector_3" d="M19.0164 15.2131H12.3607V25.6722H19.0164V15.2131Z" fill="#F1F1F1"/>
<path id="Vector_4" d="M45.6393 33.2788H38.9836V43.7378H45.6393V33.2788Z" fill="#F1F1F1"/>
</g>
</g>
<defs>
<filter id="filter0_ddi_213_5153" x="9.58912" y="13.2731" width="38.8218" height="34.0677" filterUnits="userSpaceOnUse" color-interpolation-filters="sRGB">
<feFlood flood-opacity="0" result="BackgroundImageFix"/>
<feColorMatrix in="SourceAlpha" type="matrix" values="0 0 0 0 0 0 0 0 0 0 0 0 0 0 0 0 0 0 127 0" result="hardAlpha"/>
<feOffset dy="-0.085278"/>
<feGaussianBlur stdDeviation="0.042639"/>
<feComposite in2="hardAlpha" operator="out"/>
<feColorMatrix type="matrix" values="0 0 0 0 1 0 0 0 0 1 0 0 0 0 1 0 0 0 0.6 0"/>
<feBlend mode="soft-light" in2="BackgroundImageFix" result="effect1_dropShadow_213_5153"/>
<feColorMatrix in="SourceAlpha" type="matrix" values="0 0 0 0 0 0 0 0 0 0 0 0 0 0 0 0 0 0 127 0" result="hardAlpha"/>
<feOffset dy="0.831461"/>
<feGaussianBlur stdDeviation="1.38577"/>
<feComposite in2="hardAlpha" operator="out"/>
<feColorMatrix type="matrix" values="0 0 0 0 0 0 0 0 0 0 0 0 0 0 0 0 0 0 0.25 0"/>
<feBlend mode="overlay" in2="effect1_dropShadow_213_5153" result="effect2_dropShadow_213_5153"/>
<feBlend mode="normal" in="SourceGraphic" in2="effect2_dropShadow_213_5153" result="shape"/>
<feColorMatrix in="SourceAlpha" type="matrix" values="0 0 0 0 0 0 0 0 0 0 0 0 0 0 0 0 0 0 127 0" result="hardAlpha"/>
<feOffset dy="0.138577"/>
<feGaussianBlur stdDeviation="0.0692884"/>
<feComposite in2="hardAlpha" operator="arithmetic" k2="-1" k3="1"/>
<feColorMatrix type="matrix" values="0 0 0 0 1 0 0 0 0 1 0 0 0 0 1 0 0 0 1 0"/>
<feBlend mode="normal" in2="shape" result="effect3_innerShadow_213_5153"/>
</filter>
<linearGradient id="paint0_linear_213_5153" x1="0.0222282" y1="57.9778" x2="54.8271" y2="3.17288" gradientUnits="userSpaceOnUse">
<stop offset="0.062" stop-color="#004BE0"/>
<stop offset="0.314" stop-color="#004BE0" stop-opacity="0.95"/>
<stop offset="0.532" stop-color="#0083E6" stop-opacity="0.938"/>
<stop offset="0.778" stop-color="#00BBE2" stop-opacity="0.6"/>
<stop offset="1" stop-color="#50D3F2" stop-opacity="0.4"/>
</linearGradient>
<clipPath id="clip0_213_5153">
<rect width="58" height="58" fill="white"/>
</clipPath>
</defs>
</svg>
